{"title":"Fallen.Angels","uid":6126457,"size":734041338,"categoryP":"video","categoryS":"movies","magnet":"?xt=urn:btih:d3ba9871e41372ffe79fefd26205595522fd2a38&amp;dn=Fallen.Angels&amp;tr=udp%3A%2F%2Ftracker.openbittorrent.com%3A80&amp;tr=udp%3A%2F%2Fopen.demonii.com%3A1337&amp;tr=udp%3A%2F%2Ftracker.coppersurfer.tk%3A6969&amp;tr=udp%3A%2F%2Fexodus.desync.com%3A6969","seeders":0,"leechers":1,"uploader":"tibbonc","files":2,"time":1295914770,"description":"General\nComplete name                    : Fallen.angels.wong.kar.wai.avi\nFormat                           : AVI\nFormat/Info                      : Audio Video Interleave\nFile size                        : 700 MiB\nDuration                         : 1h 32mn\nOverall bit rate                 : 1 060 Kbps\nWriting application              : VirtualDubMod 1.5.4.1 (build 2178/release)\nWriting library                  : VirtualDubMod build 2178/release\n\nVideo\nID                               : 0\nFormat                           : MPEG-4 Visual\nFormat profile                   : Advanced Simple@L5\nFormat settings, BVOP            : Yes\nFormat settings, QPel            : No\nFormat settings, GMC             : No warppoints\nFormat settings, Matrix          : Custom\nCodec ID                         : XVID\nCodec ID/Hint                    : XviD\nDuration                         : 1h 32mn\nBit rate                         : 918 Kbps\nWidth                            : 608 pixels\nHeight                           : 368 pixels\nDisplay aspect ratio             : 1.652\nFrame rate                       : 25.000 fps\nColor space                      : YUV\nChroma subsampling               : 4:2:0\nBit depth                        : 8 bits\nScan type                        : Progressive\nBits/(Pixel*Frame)               : 0.164\nStream size                      : 606 MiB (87%)\nWriting library                  : XviD 0039 build=2005.09.25 (UTC 2005-09-25)\n\nAudio\nID                               : 1\nFormat                           : MPEG Audio\nFormat version                   : Version 1\nFormat profile                   : Layer 3\nMode                             : Joint stereo\nMode extension                   : MS Stereo\nCodec ID                         : 55\nCodec ID/Hint                    : MP3\nDuration                         : 1h 32mn\nBit rate mode                    : Variable\nBit rate                         : 128 Kbps\nChannel(s)                       : 2 channels\nSampling rate                    : 48.0 KHz\nStream size                      : 85.7 MiB (12%)\nAlignment                        : Aligned on interleaves\nInterleave, duration             : 24 ms (0.60 video frame)\nInterleave, preload duration     : 487 ms\nWriting library                  : LAME3.96r\nEncoding settings                : -m j -V 4 -q 2 -lowpass 17.5 --abr 128\nLanguage                         : Chinese\n\n","torrent":{"xt":"urn:btih:d3ba9871e41372ffe79fefd26205595522fd2a38","amp;dn":"Fallen.Angels","amp;tr":["udp%3A%2F%2Ftracker.openbittorrent.com%3A80","udp%3A%2F%2Fopen.demonii.com%3A1337","udp%3A%2F%2Ftracker.coppersurfer.tk%3A6969","udp%3A%2F%2Fexodus.desync.com%3A6969"],"infoHash":"d3ba9871e41372ffe79fefd26205595522fd2a38","infoHashBuffer":{"type":"Buffer","data":[211,186,152,113,228,19,114,255,231,159,239,210,98,5,89,85,34,253,42,56]},"announce":[],"urlList":[]}}